<?xml version="1.0" encoding="utf-8"?>
<svg version="1.1" xmlns:xlink="http://www.w3.org/1999/xlink" width="75px" height="73px" xmlns="http://www.w3.org/2000/svg">
  <g transform="matrix(1 0 0 1 -50 -456 )">
    <path d="M 51 467  A 10 10 0 0 1 61 457 L 114 457  A 10 10 0 0 1 124 467 L 124 518  A 10 10 0 0 1 114 528 L 61 528  A 10 10 0 0 1 51 518 L 51 467  Z " fill-rule="nonzero" fill="#ffffff" stroke="none" />
    <path d="M 50.5 467  A 10.5 10.5 0 0 1 61 456.5 L 114 456.5  A 10.5 10.5 0 0 1 124.5 467 L 124.5 518  A 10.5 10.5 0 0 1 114 528.5 L 61 528.5  A 10.5 10.5 0 0 1 50.5 518 L 50.5 467  Z " stroke-width="1" stroke-dasharray="9,4" stroke="#797979" fill="none" stroke-dashoffset="0.5" />
  </g>
</svg>