<?xml version="1.0" encoding="utf-8"?>
<svg version="1.1" xmlns:xlink="http://www.w3.org/1999/xlink" width="75px" height="73px" xmlns="http://www.w3.org/2000/svg">
  <g transform="matrix(1 0 0 1 -492 -456 )">
    <path d="M 492 456  L 567 456  L 567 529  L 492 529  L 492 456  " fill-rule="nonzero" fill="#cccccc" stroke="none" />
    <path d="M 497 461  L 562 461  L 562 524  L 497 524  L 497 461  " fill-rule="nonzero" fill="#ffffff" stroke="none" />
    <path d="M 536.475 477.9  C 533.409 477.9  531 475.491  531 472.425  C 531 469.359  533.409 466.95  536.475 466.95  C 539.541 466.95  541.95 469.359  541.95 472.425  C 541.95 475.491  539.541 477.9  536.475 477.9  " fill-rule="nonzero" fill="#cccccc" stroke="none" />
    <path d="M 499 522  L 499 489.55  L 514.25 474.8  L 535.6 487.544  L 547.8 483.65  L 560 487.544  L 560 522  L 499 522  " fill-rule="nonzero" fill="#169bd5" stroke="none" />
  </g>
</svg>