<?xml version="1.0" encoding="utf-8"?>
<svg version="1.1" xmlns:xlink="http://www.w3.org/1999/xlink" width="176px" height="68px" xmlns="http://www.w3.org/2000/svg">
  <defs>
    <mask fill="white" id="clip8">
      <path d="M 0 46  L 0 10  C 0 4.39999999999998  2.7657142857143 0  6.28571428571431 0  L 162.8 0  C 166.32 0  169.085714285714 4.39999999999998  169 10  L 169 46  C 169.085714285714 51.6  187.314285714286 85  162.8 56  L 6.28571428571431 56  C 2.7657142857143 56  0 51.6  0 46  Z " fill-rule="evenodd" />
    </mask>
  </defs>
  <g transform="matrix(1 0 0 1 -188 -213 )">
    <path d="M 0 46  L 0 10  C 0 4.39999999999998  2.7657142857143 0  6.28571428571431 0  L 162.8 0  C 166.32 0  169.085714285714 4.39999999999998  169 10  L 169 46  C 169.085714285714 51.6  187.314285714286 85  162.8 56  L 6.28571428571431 56  C 2.7657142857143 56  0 51.6  0 46  Z " fill-rule="nonzero" fill="#ffffff" stroke="none" transform="matrix(1 0 0 1 188 213 )" />
    <path d="M 0 46  L 0 10  C 0 4.39999999999998  2.7657142857143 0  6.28571428571431 0  L 162.8 0  C 166.32 0  169.085714285714 4.39999999999998  169 10  L 169 46  C 169.085714285714 51.6  187.314285714286 85  162.8 56  L 6.28571428571431 56  C 2.7657142857143 56  0 51.6  0 46  Z " stroke-width="2" stroke="#797979" fill="none" transform="matrix(1 0 0 1 188 213 )" mask="url(#clip8)" />
  </g>
</svg>