<?xml version="1.0" encoding="utf-8"?>
<svg version="1.1" xmlns:xlink="http://www.w3.org/1999/xlink" width="182px" height="68px" xmlns="http://www.w3.org/2000/svg">
  <defs>
    <mask fill="white" id="clip9">
      <path d="M 182 46  L 182 10  C 182 4.39999999999998  179.14 0  175.5 0  L 13.65 0  C 10.01 0  7.14999999999999 4.39999999999998  8 10  L 8 46  C 7.14999999999999 51.6  -11.7 85  13.65 56  L 175.5 56  C 179.14 56  182 51.6  182 46  Z " fill-rule="evenodd" />
    </mask>
  </defs>
  <g transform="matrix(1 0 0 1 -57 -310 )">
    <path d="M 182 46  L 182 10  C 182 4.39999999999998  179.14 0  175.5 0  L 13.65 0  C 10.01 0  7.14999999999999 4.39999999999998  8 10  L 8 46  C 7.14999999999999 51.6  -11.7 85  13.65 56  L 175.5 56  C 179.14 56  182 51.6  182 46  Z " fill-rule="nonzero" fill="#ffffff" stroke="none" transform="matrix(1 0 0 1 57 310 )" />
    <path d="M 182 46  L 182 10  C 182 4.39999999999998  179.14 0  175.5 0  L 13.65 0  C 10.01 0  7.14999999999999 4.39999999999998  8 10  L 8 46  C 7.14999999999999 51.6  -11.7 85  13.65 56  L 175.5 56  C 179.14 56  182 51.6  182 46  Z " stroke-width="2" stroke="#797979" fill="none" transform="matrix(1 0 0 1 57 310 )" mask="url(#clip9)" />
  </g>
</svg>