<?xml version="1.0" encoding="utf-8"?>
<svg version="1.1" xmlns:xlink="http://www.w3.org/1999/xlink" width="16px" height="16px" xmlns="http://www.w3.org/2000/svg">
  <g transform="matrix(1 0 0 1 -271 -711 )">
    <path d="M 279 711  C 283.48 711  287 714.52  287 719  C 287 723.48  283.48 727  279 727  C 274.52 727  271 723.48  271 719  C 271 714.52  274.52 711  279 711  Z " fill-rule="nonzero" fill="#ffffff" stroke="none" />
    <path d="M 279 711.5  C 283.2 711.5  286.5 714.8  286.5 719  C 286.5 723.2  283.2 726.5  279 726.5  C 274.8 726.5  271.5 723.2  271.5 719  C 271.5 714.8  274.8 711.5  279 711.5  Z " stroke-width="1" stroke="#797979" fill="none" />
  </g>
</svg>