<?xml version="1.0" encoding="utf-8"?>
<svg version="1.1" xmlns:xlink="http://www.w3.org/1999/xlink" width="40px" height="50px" xmlns="http://www.w3.org/2000/svg">
  <defs>
    <filter x="430px" y="84px" width="40px" height="50px" filterUnits="userSpaceOnUse" id="filter1">
      <feOffset dx="1" dy="1" in="SourceAlpha" result="shadowOffsetInner" />
      <feGaussianBlur stdDeviation="2.5" in="shadowOffsetInner" result="shadowGaussian" />
      <feComposite in2="shadowGaussian" operator="atop" in="SourceAlpha" result="shadowComposite" />
      <feColorMatrix type="matrix" values="0 0 0 0 0  0 0 0 0 0  0 0 0 0 0  0 0 0 0.698039215686274 0  " in="shadowComposite" />
    </filter>
    <g id="widget2">
      <path d="M 449 127.036928468354  C 443.2 117.40734059591  434.5 111.629587872444  434.5 102  C 434.5 96.9857142857143  437.4 88.5  449 88.5  C 460.6 88.5  463.5 96.9857142857143  463.5 102  C 463.5 111.629587872444  454.8 117.40734059591  449 127.036928468354  Z " fill-rule="nonzero" fill="#009dd9" stroke="none" />
      <path d="M 449 128  C 443 118  434 112  434 102  C 434 96.8  437 88  449 88  C 461 88  464 96.8  464 102  C 464 112  455 118  449 128  Z M 449 126.073856936707  C 454.6 116.81468119182  463 111.259175744887  463 102  C 463 97.1714285714286  460.2 89  449 89  C 437.8 89  435 97.1714285714286  435 102  C 435 111.259175744887  443.4 116.81468119182  449 126.073856936707  Z " fill-rule="nonzero" fill="#ffffff" stroke="none" />
    </g>
  </defs>
  <g transform="matrix(1 0 0 1 -430 -84 )">
    <use xlink:href="#widget2" filter="url(#filter1)" />
    <use xlink:href="#widget2" />
  </g>
</svg>