<?xml version="1.0" encoding="utf-8"?>
<svg version="1.1" xmlns:xlink="http://www.w3.org/1999/xlink" width="244px" height="88px" xmlns="http://www.w3.org/2000/svg">
  <defs>
    <mask fill="white" id="clip5">
      <path d="M 9 80.5633802816901  L 9 8.05633802816902  C 8.97058823529412 5.92767536099916  -0.989742352272813 1.96427149523461  1.02521008403363 0.619718309859138  C 2.95230245370882 -0.666206924638743  16.7883549503719 0.619718309859138  19.7352941176471 0.619718309859138  L 233.235294117647 0.619718309859138  C 239.263529411765 0.619718309859138  244 3.8918309859155  244 8.05633802816902  L 244 80.5633802816901  C 244 84.7278873239437  239.263529411765 88  233.235294117647 88  L 19.7352941176471 88  C 13.7070588235294 88  8.97058823529412 84.7278873239437  9 80.5633802816901  Z " fill-rule="evenodd" />
    </mask>
  </defs>
  <g transform="matrix(1 0 0 1 -94 -226 )">
    <path d="M 9 80.5633802816901  L 9 8.05633802816902  C 8.97058823529412 5.92767536099916  -0.989742352272813 1.96427149523461  1.02521008403363 0.619718309859138  C 2.95230245370882 -0.666206924638743  16.7883549503719 0.619718309859138  19.7352941176471 0.619718309859138  L 233.235294117647 0.619718309859138  C 239.263529411765 0.619718309859138  244 3.8918309859155  244 8.05633802816902  L 244 80.5633802816901  C 244 84.7278873239437  239.263529411765 88  233.235294117647 88  L 19.7352941176471 88  C 13.7070588235294 88  8.97058823529412 84.7278873239437  9 80.5633802816901  Z " fill-rule="nonzero" fill="#ffffff" stroke="none" transform="matrix(1 0 0 1 94 226 )" />
    <path d="M 9 80.5633802816901  L 9 8.05633802816902  C 8.97058823529412 5.92767536099916  -0.989742352272813 1.96427149523461  1.02521008403363 0.619718309859138  C 2.95230245370882 -0.666206924638743  16.7883549503719 0.619718309859138  19.7352941176471 0.619718309859138  L 233.235294117647 0.619718309859138  C 239.263529411765 0.619718309859138  244 3.8918309859155  244 8.05633802816902  L 244 80.5633802816901  C 244 84.7278873239437  239.263529411765 88  233.235294117647 88  L 19.7352941176471 88  C 13.7070588235294 88  8.97058823529412 84.7278873239437  9 80.5633802816901  Z " stroke-width="2" stroke="#797979" fill="none" transform="matrix(1 0 0 1 94 226 )" mask="url(#clip5)" />
  </g>
</svg>