<?xml version="1.0" encoding="utf-8"?>
<svg version="1.1" xmlns:xlink="http://www.w3.org/1999/xlink" width="244px" height="89px" xmlns="http://www.w3.org/2000/svg">
  <defs>
    <mask fill="white" id="clip6">
      <path d="M 235 81.4788732394366  L 235 8.14788732394368  C 235.029411764706 5.99503530828321  244.989742352273 1.98659276222588  242.974789915966 0.626760563380287  C 241.047697546291 -0.673777457873314  227.211645049628 0.626760563380287  224.264705882353 0.626760563380287  L 10.7647058823529 0.626760563380287  C 4.73647058823524 0.626760563380287  0 3.93605633802821  0 8.14788732394368  L 0 81.4788732394366  C 0 85.6907042253522  4.73647058823524 89  10.7647058823529 89  L 224.264705882353 89  C 230.292941176471 89  235.029411764706 85.6907042253522  235 81.4788732394366  Z " fill-rule="evenodd" />
    </mask>
  </defs>
  <g transform="matrix(1 0 0 1 -84 -502 )">
    <path d="M 235 81.4788732394366  L 235 8.14788732394368  C 235.029411764706 5.99503530828321  244.989742352273 1.98659276222588  242.974789915966 0.626760563380287  C 241.047697546291 -0.673777457873314  227.211645049628 0.626760563380287  224.264705882353 0.626760563380287  L 10.7647058823529 0.626760563380287  C 4.73647058823524 0.626760563380287  0 3.93605633802821  0 8.14788732394368  L 0 81.4788732394366  C 0 85.6907042253522  4.73647058823524 89  10.7647058823529 89  L 224.264705882353 89  C 230.292941176471 89  235.029411764706 85.6907042253522  235 81.4788732394366  Z " fill-rule="nonzero" fill="#ffffff" stroke="none" transform="matrix(1 0 0 1 84 502 )" />
    <path d="M 235 81.4788732394366  L 235 8.14788732394368  C 235.029411764706 5.99503530828321  244.989742352273 1.98659276222588  242.974789915966 0.626760563380287  C 241.047697546291 -0.673777457873314  227.211645049628 0.626760563380287  224.264705882353 0.626760563380287  L 10.7647058823529 0.626760563380287  C 4.73647058823524 0.626760563380287  0 3.93605633802821  0 8.14788732394368  L 0 81.4788732394366  C 0 85.6907042253522  4.73647058823524 89  10.7647058823529 89  L 224.264705882353 89  C 230.292941176471 89  235.029411764706 85.6907042253522  235 81.4788732394366  Z " stroke-width="2" stroke="#797979" fill="none" transform="matrix(1 0 0 1 84 502 )" mask="url(#clip6)" />
  </g>
</svg>