<?xml version="1.0" encoding="utf-8"?>
<svg version="1.1" xmlns:xlink="http://www.w3.org/1999/xlink" width="244px" height="90px" xmlns="http://www.w3.org/2000/svg">
  <defs>
    <mask fill="white" id="clip7">
      <path d="M 9 82.394366197183  L 9 8.23943661971833  C 8.97058823529412 6.06239525556731  -0.989742352272813 2.00891402921724  1.02521008403363 0.63380281690138  C 2.95230245370882 -0.681347991107828  16.7883549503719 0.63380281690138  19.7352941176471 0.63380281690138  L 233.235294117647 0.63380281690138  C 239.263529411765 0.63380281690138  244 3.98028169014088  244 8.23943661971833  L 244 82.394366197183  C 244 86.6535211267606  239.263529411765 90  233.235294117647 90  L 19.7352941176471 90  C 13.7070588235294 90  8.97058823529412 86.6535211267606  9 82.394366197183  Z " fill-rule="evenodd" />
    </mask>
  </defs>
  <g transform="matrix(1 0 0 1 -94 -363 )">
    <path d="M 9 82.394366197183  L 9 8.23943661971833  C 8.97058823529412 6.06239525556731  -0.989742352272813 2.00891402921724  1.02521008403363 0.63380281690138  C 2.95230245370882 -0.681347991107828  16.7883549503719 0.63380281690138  19.7352941176471 0.63380281690138  L 233.235294117647 0.63380281690138  C 239.263529411765 0.63380281690138  244 3.98028169014088  244 8.23943661971833  L 244 82.394366197183  C 244 86.6535211267606  239.263529411765 90  233.235294117647 90  L 19.7352941176471 90  C 13.7070588235294 90  8.97058823529412 86.6535211267606  9 82.394366197183  Z " fill-rule="nonzero" fill="#ffffff" stroke="none" transform="matrix(1 0 0 1 94 363 )" />
    <path d="M 9 82.394366197183  L 9 8.23943661971833  C 8.97058823529412 6.06239525556731  -0.989742352272813 2.00891402921724  1.02521008403363 0.63380281690138  C 2.95230245370882 -0.681347991107828  16.7883549503719 0.63380281690138  19.7352941176471 0.63380281690138  L 233.235294117647 0.63380281690138  C 239.263529411765 0.63380281690138  244 3.98028169014088  244 8.23943661971833  L 244 82.394366197183  C 244 86.6535211267606  239.263529411765 90  233.235294117647 90  L 19.7352941176471 90  C 13.7070588235294 90  8.97058823529412 86.6535211267606  9 82.394366197183  Z " stroke-width="2" stroke="#797979" fill="none" transform="matrix(1 0 0 1 94 363 )" mask="url(#clip7)" />
  </g>
</svg>